<svg width="29" height="28" viewBox="0 0 29 28" fill="none" xmlns="http://www.w3.org/2000/svg">
<path d="M29 4.05902C27.9335 4.59655 26.7879 4.95975 25.5835 5.12392C26.8122 4.28711 27.7547 2.95925 28.1992 1.3786C27.0497 2.15439 25.7764 2.71808 24.4213 3.02026C23.3356 1.70693 21.7902 0.884644 20.0788 0.884644C16.7938 0.884644 14.1296 3.91519 14.1296 7.6547C14.1296 8.18352 14.1832 8.69781 14.2829 9.19467C9.3363 8.91138 4.95424 6.21643 2.01924 2.12243C1.50837 3.12486 1.21461 4.28711 1.21461 5.52489C1.21461 7.87262 2.26574 9.94577 3.86096 11.1589C2.88518 11.1225 1.96816 10.8189 1.16608 10.3119V10.399C1.16608 13.678 3.21598 16.4136 5.93896 17.0354C5.4383 17.1894 4.91337 17.2708 4.37184 17.2708C3.98868 17.2708 3.61446 17.2301 3.25174 17.1517C4.00912 19.8393 6.20589 21.7977 8.8101 21.85C6.77297 23.666 4.20708 24.7484 1.42024 24.7484C0.940014 24.7484 0.466174 24.7164 0 24.6539C2.63358 26.576 5.76015 27.6946 9.11918 27.6946C20.0647 27.6946 26.0484 17.3827 26.0484 8.43922C26.0484 8.14866 26.042 7.85519 26.0305 7.56463C27.1928 6.60868 28.2018 5.41884 28.9974 4.06338L29 4.05902Z" fill="#413E3E"/>
</svg>
