<svg width="20" height="38" viewBox="0 0 20 38" fill="none" xmlns="http://www.w3.org/2000/svg">
<path d="M20 1.38091C20 1.10665 19.9042 0.843629 19.7337 0.6497C19.5632 0.455772 19.332 0.346823 19.0909 0.346823H14.5455C12.2566 0.21713 10.0156 1.1232 8.31222 2.86705C6.60881 4.61091 5.58143 7.05079 5.45455 9.65359V15.2376H0.909091C0.667985 15.2376 0.436754 15.3466 0.266267 15.5405C0.0957791 15.7345 0 15.9975 0 16.2717V21.649C0 21.9232 0.0957791 22.1863 0.266267 22.3802C0.436754 22.5741 0.667985 22.6831 0.909091 22.6831H5.45455V36.5398C5.45455 36.8141 5.55032 37.0771 5.72081 37.271C5.8913 37.4649 6.12253 37.5739 6.36364 37.5739H11.8182C12.0593 37.5739 12.2905 37.4649 12.461 37.271C12.6315 37.0771 12.7273 36.8141 12.7273 36.5398V22.6831H17.4909C17.6931 22.6864 17.8904 22.6129 18.0518 22.4743C18.2131 22.3357 18.3293 22.1399 18.3818 21.9178L19.6909 16.5406C19.7271 16.3878 19.7319 16.2276 19.7051 16.0723C19.6783 15.9171 19.6205 15.7709 19.5362 15.645C19.4519 15.5192 19.3433 15.417 19.2188 15.3463C19.0944 15.2757 18.9573 15.2385 18.8182 15.2376H12.7273V9.65359C12.7725 9.14167 12.9838 8.6673 13.32 8.32312C13.6562 7.97894 14.0932 7.78966 14.5455 7.79224H19.0909C19.332 7.79224 19.5632 7.68329 19.7337 7.48936C19.9042 7.29543 20 7.03241 20 6.75815V1.38091Z" fill="#413E3E"/>
</svg>
