<svg width="28" height="33" viewBox="0 0 28 33" fill="none" xmlns="http://www.w3.org/2000/svg">
<path fill-rule="evenodd" clip-rule="evenodd" d="M8.22811 0.430144C9.72145 0.352286 10.1974 0.334595 14 0.334595C17.8033 0.334595 18.2785 0.353169 19.7711 0.430144C21.2621 0.507119 22.2802 0.77696 23.1708 1.17065C24.1048 1.57067 24.9509 2.19743 25.6503 3.00733C26.3624 3.80275 26.9135 4.76528 27.265 5.82781C27.6111 6.8408 27.8475 7.99891 27.916 9.69401C27.9845 11.3927 28 11.9341 28 16.2595C28 20.5849 27.9837 21.1263 27.916 22.8251C27.8483 24.52 27.6111 25.6782 27.265 26.6912C26.9072 27.7379 26.4281 28.6269 25.6503 29.5116C24.9511 30.3216 24.1048 30.9485 23.1708 31.3484C22.2802 31.742 21.2621 32.011 19.7719 32.0889C18.2785 32.1668 17.8025 32.1844 14 32.1844C10.1974 32.1844 9.72145 32.1659 8.22811 32.0889C6.73789 32.0118 5.71978 31.742 4.82922 31.3484C3.90911 30.9414 3.12745 30.3963 2.34967 29.5116C1.63754 28.7163 1.0865 27.7537 0.735 26.6912C0.388895 25.6782 0.152447 24.52 0.084 22.8251C0.0155527 21.1263 0 20.5857 0 16.2595C0 11.9332 0.0163291 11.3927 0.084 9.69491C0.151671 7.99891 0.388895 6.8408 0.735 5.82781C1.08667 4.76535 1.63767 3.80287 2.34967 3.00733C3.04893 2.19729 3.89512 1.57048 4.82922 1.17065C5.71978 0.77696 6.73789 0.508003 8.22811 0.430144ZM19.6575 3.29663C18.1813 3.22054 17.738 3.20373 14 3.20373C10.262 3.20373 9.81867 3.22054 8.34245 3.29663C6.97745 3.36741 6.23622 3.62662 5.74311 3.84515C5.08978 4.13357 4.62311 4.4786 4.13311 5.03598C3.64389 5.59335 3.33978 6.12418 3.08622 6.86734C2.89411 7.42826 2.66622 8.2714 2.604 9.82408C2.53711 11.5033 2.52233 12.0076 2.52233 16.2595C2.52233 20.5115 2.53711 21.0157 2.604 22.6949C2.66622 24.2476 2.89411 25.0907 3.08622 25.6517C3.3105 26.3435 3.66824 26.9692 4.13311 27.4831C4.5848 28.0118 5.13496 28.4188 5.74311 28.6738C6.23622 28.8924 6.97745 29.1516 8.34245 29.2224C9.81867 29.2985 10.2612 29.3153 14 29.3153C17.7388 29.3153 18.1813 29.2985 19.6575 29.2224C21.0225 29.1516 21.7638 28.8924 22.2569 28.6738C22.9102 28.3855 23.3769 28.0405 23.8669 27.4831C24.3317 26.9693 24.6895 26.3435 24.9138 25.6517C25.1059 25.0907 25.3338 24.2476 25.396 22.6949C25.4629 21.0157 25.4777 20.5115 25.4777 16.2595C25.4777 12.0076 25.4629 11.5033 25.396 9.82408C25.3338 8.2714 25.1059 7.42826 24.9138 6.86734C24.6602 6.12418 24.3569 5.59335 23.8669 5.03598C23.3769 4.4795 22.9102 4.13357 22.2569 3.84515C21.7638 3.62662 21.0225 3.36741 19.6575 3.29663ZM12.2125 21.1686C12.7792 21.4357 13.3865 21.5731 14 21.5731C15.239 21.5731 16.4271 21.0132 17.3031 20.0168C18.1793 19.0203 18.6714 17.6687 18.6714 16.2595C18.6714 14.8503 18.1793 13.4987 17.3031 12.5022C16.4271 11.5057 15.239 10.9459 14 10.9459C13.3865 10.9459 12.7792 11.0833 12.2125 11.3504C11.6456 11.6174 11.1307 12.0088 10.6969 12.5022C10.2631 12.9956 9.91904 13.5814 9.68428 14.226C9.44953 14.8707 9.32871 15.5617 9.32871 16.2595C9.32871 16.9573 9.44953 17.6483 9.68428 18.293C9.91904 18.9376 10.2631 19.5234 10.6969 20.0168C11.1307 20.5102 11.6456 20.9016 12.2125 21.1686ZM8.9117 10.4715C10.2612 8.93648 12.0915 8.07409 14 8.07409C15.9086 8.07409 17.7389 8.93648 19.0884 10.4715C20.4378 12.0066 21.196 14.0887 21.196 16.2595C21.196 18.4304 20.4378 20.5123 19.0884 22.0475C17.7389 23.5825 15.9086 24.4449 14 24.4449C12.0915 24.4449 10.2612 23.5825 8.9117 22.0475C7.56219 20.5123 6.80404 18.4304 6.80404 16.2595C6.80404 14.0887 7.56219 12.0066 8.9117 10.4715ZM22.7916 9.29363C23.1106 8.93076 23.2898 8.43862 23.2898 7.92546C23.2898 7.41229 23.1106 6.92015 22.7916 6.5573C22.4725 6.19444 22.0399 5.99059 21.5888 5.99059C21.1377 5.99059 20.705 6.19444 20.386 6.5573C20.067 6.92015 19.8878 7.41229 19.8878 7.92546C19.8878 8.43862 20.067 8.93076 20.386 9.29363C20.705 9.65649 21.1377 9.86034 21.5888 9.86034C22.0399 9.86034 22.4725 9.65649 22.7916 9.29363Z" fill="#413E3E"/>
</svg>
