<svg width="108" height="96" viewBox="0 0 108 96" fill="none" xmlns="http://www.w3.org/2000/svg">
<path d="M4.36364 0.000202422C3.20633 0.000202422 2.09642 0.505915 1.27808 1.40609C0.459739 2.30626 0 3.52716 0 4.80019C0 6.07323 0.459739 7.29412 1.27808 8.1943C2.09642 9.09447 3.20633 9.60018 4.36364 9.60018H14.0509L25.5011 60.0001C26.4742 64.2721 29.952 67.2001 33.9535 67.2001H88.368C92.3084 67.2001 95.6553 64.3201 96.6895 60.1441L108 14.4002H98.8625L88.3636 57.6001H33.9491L22.5033 7.20019C22.0305 5.13249 20.9405 3.29913 19.4081 1.9937C17.8756 0.688278 15.9891 -0.0136941 14.0509 0.000202422H4.36364ZM82.9091 67.2001C75.7309 67.2001 69.8182 73.704 69.8182 81.6C69.8182 89.496 75.7309 96 82.9091 96C90.0873 96 96 89.496 96 81.6C96 73.704 90.0873 67.2001 82.9091 67.2001ZM43.6364 67.2001C36.4582 67.2001 30.5455 73.704 30.5455 81.6C30.5455 89.496 36.4582 96 43.6364 96C50.8145 96 56.7273 89.496 56.7273 81.6C56.7273 73.704 50.8145 67.2001 43.6364 67.2001ZM56.7273 0.000202422V24.0002H43.6364L61.0909 43.2001L78.5455 24.0002H65.4545V0.000202422H56.7273ZM43.6364 76.8C46.0975 76.8 48 78.8928 48 81.6C48 84.3072 46.0975 86.4 43.6364 86.4C41.1753 86.4 39.2727 84.3072 39.2727 81.6C39.2727 78.8928 41.1753 76.8 43.6364 76.8ZM82.9091 76.8C85.3702 76.8 87.2727 78.8928 87.2727 81.6C87.2727 84.3072 85.3702 86.4 82.9091 86.4C80.448 86.4 78.5455 84.3072 78.5455 81.6C78.5455 78.8928 80.448 76.8 82.9091 76.8Z" fill="#A35EC3"/>
</svg>
