<?xml version="1.0" standalone="no"?>
<!DOCTYPE svg PUBLIC "-//W3C//DTD SVG 20010904//EN"
 "http://www.w3.org/TR/2001/REC-SVG-20010904/DTD/svg10.dtd">
<svg version="1.0" xmlns="http://www.w3.org/2000/svg"
 width="1056.000000pt" height="1201.000000pt" viewBox="0 0 1056.000000 1201.000000"
 preserveAspectRatio="xMidYMid meet">

<g transform="translate(0.000000,1201.000000) scale(0.100000,-0.100000)"
fill="#000000" stroke="none">
<path d="M3805 11994 c-380 -19 -740 -44 -852 -60 l-43 -6 -2 -522 c-2 -393
-3 -439 -5 -188 -2 182 -7 332 -11 332 -36 0 -595 -54 -732 -70 -290 -34 -778
-105 -789 -116 -2 -2 2 -101 8 -221 6 -120 13 -238 14 -262 l2 -45 -155 -23
c-415 -61 -1187 -202 -1220 -223 -14 -8 -20 47 290 -2415 71 -566 211 -1678
310 -2470 100 -792 269 -2135 376 -2985 107 -850 226 -1803 266 -2117 39 -315
74 -577 77 -582 4 -6 45 -1 101 10 173 36 572 107 780 139 113 17 219 33 235
35 55 9 649 83 710 89 366 37 477 47 640 60 803 64 1642 92 2460 82 286 -3
570 -9 630 -11 61 -3 225 -10 365 -15 566 -23 1336 -80 1920 -141 470 -49
1245 -147 1304 -165 16 -5 18 -1 15 46 l-4 51 30 -5 30 -6 -3 5373 c-2 2954
-6 5375 -10 5378 -4 4 -133 45 -287 92 -396 121 -420 128 -709 207 -1486 406
-2910 647 -4346 736 -236 14 -1212 27 -1395 18z m-920 -2995 c7 -1383 16
-2899 19 -3369 3 -470 9 -1650 12 -2622 l7 -1768 21 5 c18 4 258 22 541 39
323 21 1224 15 1545 -9 30 -2 100 -7 155 -10 261 -15 756 -60 940 -85 39 -5
95 -12 125 -15 129 -14 507 -67 717 -100 1108 -176 2223 -442 3334 -796 153
-49 157 -50 163 -81 3 -17 4 -34 1 -37 -3 -3 -43 3 -88 13 -725 157 -1588 311
-2182 390 -562 75 -1142 137 -1600 171 -115 8 -237 17 -270 20 -151 11 -457
26 -815 39 -626 24 -1494 11 -2070 -29 -283 -20 -629 -51 -790 -70 -19 -2 -75
-9 -125 -15 -49 -6 -188 -25 -308 -41 -120 -17 -220 -29 -221 -27 -2 1 -6 55
-10 118 -3 63 -11 194 -16 290 -6 96 -12 218 -15 270 -3 52 -7 131 -10 175 -7
111 -13 228 -25 450 -5 105 -12 228 -15 275 -3 47 -25 454 -50 905 -24 451
-47 858 -50 905 -3 47 -41 740 -85 1540 -44 800 -98 1779 -120 2175 -22 396
-60 1089 -85 1540 -24 451 -47 858 -50 905 -2 47 -14 252 -25 455 -29 543 -30
552 -36 647 l-6 86 53 10 c30 6 88 16 129 22 41 6 116 17 165 25 219 35 780
97 1005 111 58 4 107 8 109 10 2 2 6 2 8 0 2 -2 10 -1135 18 -2517z m-1481
1654 c4 -82 9 -175 11 -208 3 -33 12 -186 20 -340 8 -154 47 -851 85 -1550 39
-698 79 -1434 90 -1635 21 -397 28 -513 35 -635 10 -174 16 -274 35 -630 11
-203 22 -408 25 -455 5 -89 117 -2122 160 -2900 13 -250 27 -491 29 -535 3
-44 19 -332 37 -640 17 -308 32 -561 33 -563 2 -1 97 11 212 27 186 27 544 71
694 85 651 63 1171 86 1925 85 1159 -1 2095 -66 3360 -234 462 -61 980 -148
1658 -278 116 -22 52 -22 -125 -1 -873 107 -1709 170 -2823 213 -255 10 -1530
10 -1780 0 -357 -14 -490 -20 -660 -29 -205 -12 -461 -29 -530 -35 -27 -2 -86
-7 -130 -10 -44 -3 -100 -8 -125 -10 -25 -3 -119 -12 -210 -20 -600 -57 -1293
-155 -1860 -264 -113 -21 -205 -38 -206 -38 0 1 -31 247 -68 547 -37 300 -69
556 -71 570 -2 14 -43 333 -90 710 -47 377 -94 755 -105 840 -11 85 -22 173
-25 195 -3 22 -54 432 -115 910 -60 479 -175 1392 -255 2030 -157 1254 -252
2007 -260 2070 -18 141 -326 2595 -328 2615 -2 24 2 25 158 57 248 52 617 118
870 157 127 19 241 37 255 39 72 12 67 22 74 -140z m5566 -1238 c510 -71 891
-255 1230 -594 262 -263 475 -602 641 -1021 171 -429 249 -805 249 -1191 0
-362 -70 -667 -225 -986 -320 -655 -832 -1015 -1535 -1078 -41 -4 -76 -8 -77
-9 -1 0 44 -39 98 -86 391 -331 843 -574 1319 -710 167 -47 190 -64 190 -133
0 -107 -93 -139 -290 -101 -132 25 -283 79 -455 163 -465 226 -842 514 -1463
1116 l-135 130 4 -680 4 -680 -130 -2 c-288 -4 -1318 -23 -1584 -30 l-283 -6
5 1629 c4 896 3 2111 -1 2701 l-7 1072 139 66 c385 184 861 334 1261 399 145
24 188 29 360 47 126 12 554 2 685 -16z m2943 -9192 c-7 -2 -19 -2 -25 0 -7 3
-2 5 12 5 14 0 19 -2 13 -5z m54 -9 c-3 -3 -12 -4 -19 -1 -8 3 -5 6 6 6 11 1
17 -2 13 -5z"/>
<path d="M6526 8599 c-12 -1109 -19 -2995 -11 -3172 l7 -177 108 -123 c59 -67
158 -172 219 -234 l113 -112 126 -3 c394 -9 712 80 1018 283 136 91 349 300
446 439 154 218 276 525 328 822 42 240 34 588 -20 868 -111 567 -442 1183
-815 1512 -257 228 -602 384 -975 442 -52 8 -111 17 -130 20 -19 4 -119 9
-221 13 l-186 6 -7 -584z"/>
</g>
</svg>
