<svg width="257" height="76" viewBox="0 0 257 76" fill="none" xmlns="http://www.w3.org/2000/svg">
<rect width="257" height="76" rx="10" fill="black"/>
<path d="M78.5179 25.8992H76.2592L76.2737 24.4539H78.5179C79.1715 24.4539 79.7187 24.311 80.1593 24.0254C80.6047 23.7397 80.9388 23.3306 81.1615 22.798C81.3891 22.2654 81.5029 21.6311 81.5029 20.8951V20.3214C81.5029 19.75 81.4375 19.244 81.3068 18.8034C81.1809 18.3628 80.9921 17.9924 80.7403 17.6922C80.4934 17.392 80.1883 17.1645 79.8252 17.0095C79.4669 16.8546 79.0529 16.7771 78.5833 16.7771H76.2156V15.3246H78.5833C79.2853 15.3246 79.9269 15.4432 80.5079 15.6804C81.0889 15.9129 81.59 16.2494 82.0113 16.69C82.4374 17.1306 82.7642 17.6583 82.9918 18.2733C83.2193 18.8882 83.3331 19.5757 83.3331 20.3359V20.8951C83.3331 21.6553 83.2193 22.3428 82.9918 22.9577C82.7642 23.5727 82.4374 24.1004 82.0113 24.541C81.5852 24.9768 81.0768 25.3133 80.4861 25.5506C79.9002 25.783 79.2442 25.8992 78.5179 25.8992ZM77.2687 15.3246V25.8992H75.4457V15.3246H77.2687ZM84.8037 22.0572V21.8901C84.8037 21.3236 84.886 20.7983 85.0506 20.3141C85.2152 19.8251 85.4525 19.4014 85.7624 19.0431C86.0771 18.68 86.4596 18.3991 86.9099 18.2006C87.365 17.9973 87.8783 17.8956 88.4496 17.8956C89.0258 17.8956 89.539 17.9973 89.9893 18.2006C90.4444 18.3991 90.8294 18.68 91.1441 19.0431C91.4588 19.4014 91.6985 19.8251 91.8631 20.3141C92.0277 20.7983 92.11 21.3236 92.11 21.8901V22.0572C92.11 22.6237 92.0277 23.149 91.8631 23.6332C91.6985 24.1174 91.4588 24.541 91.1441 24.9042C90.8294 25.2625 90.4469 25.5433 89.9966 25.7467C89.5463 25.9452 89.0355 26.0444 88.4641 26.0444C87.8879 26.0444 87.3723 25.9452 86.9171 25.7467C86.4669 25.5433 86.0843 25.2625 85.7696 24.9042C85.4549 24.541 85.2152 24.1174 85.0506 23.6332C84.886 23.149 84.8037 22.6237 84.8037 22.0572ZM86.554 21.8901V22.0572C86.554 22.4106 86.5903 22.7447 86.663 23.0594C86.7356 23.3741 86.8494 23.6501 87.0043 23.8874C87.1592 24.1246 87.3578 24.311 87.5998 24.4466C87.8419 24.5822 88.13 24.65 88.4641 24.65C88.7885 24.65 89.0693 24.5822 89.3066 24.4466C89.5487 24.311 89.7472 24.1246 89.9021 23.8874C90.0571 23.6501 90.1709 23.3741 90.2435 23.0594C90.321 22.7447 90.3597 22.4106 90.3597 22.0572V21.8901C90.3597 21.5415 90.321 21.2123 90.2435 20.9024C90.1709 20.5877 90.0547 20.3093 89.8949 20.0672C89.7399 19.8251 89.5414 19.6362 89.2993 19.5007C89.0621 19.3603 88.7788 19.29 88.4496 19.29C88.1203 19.29 87.8347 19.3603 87.5926 19.5007C87.3553 19.6362 87.1592 19.8251 87.0043 20.0672C86.8494 20.3093 86.7356 20.5877 86.663 20.9024C86.5903 21.2123 86.554 21.5415 86.554 21.8901ZM95.8611 24.1561L97.6768 18.0408H98.7953L98.4902 19.8711L96.66 25.8992H95.6578L95.8611 24.1561ZM94.7935 18.0408L96.2097 24.1852L96.3259 25.8992H95.2075L93.0795 18.0408H94.7935ZM100.495 24.1125L101.867 18.0408H103.574L101.453 25.8992H100.335L100.495 24.1125ZM98.9841 18.0408L100.778 24.0835L101.003 25.8992H100.001L98.1489 19.8638L97.8438 18.0408H98.9841ZM106.65 19.7185V25.8992H104.899V18.0408H106.548L106.65 19.7185ZM106.338 21.6795L105.771 21.6722C105.776 21.1154 105.853 20.6046 106.003 20.1398C106.158 19.675 106.371 19.2755 106.643 18.9414C106.919 18.6073 107.248 18.3507 107.63 18.1716C108.013 17.9876 108.439 17.8956 108.909 17.8956C109.286 17.8956 109.628 17.9489 109.933 18.0554C110.242 18.1571 110.506 18.3241 110.724 18.5565C110.947 18.7889 111.116 19.0915 111.233 19.4644C111.349 19.8323 111.407 20.285 111.407 20.8225V25.8992H109.649V20.8152C109.649 20.4376 109.594 20.1398 109.482 19.9219C109.376 19.6992 109.218 19.5418 109.01 19.4498C108.807 19.353 108.553 19.3046 108.248 19.3046C107.947 19.3046 107.679 19.3675 107.441 19.4934C107.204 19.6193 107.003 19.7912 106.839 20.0091C106.679 20.2269 106.555 20.4787 106.468 20.7644C106.381 21.0501 106.338 21.3551 106.338 21.6795ZM115.216 14.7435V25.8992H113.459V14.7435H115.216ZM116.948 22.0572V21.8901C116.948 21.3236 117.03 20.7983 117.195 20.3141C117.36 19.8251 117.597 19.4014 117.907 19.0431C118.222 18.68 118.604 18.3991 119.054 18.2006C119.509 17.9973 120.023 17.8956 120.594 17.8956C121.17 17.8956 121.683 17.9973 122.134 18.2006C122.589 18.3991 122.974 18.68 123.289 19.0431C123.603 19.4014 123.843 19.8251 124.008 20.3141C124.172 20.7983 124.254 21.3236 124.254 21.8901V22.0572C124.254 22.6237 124.172 23.149 124.008 23.6332C123.843 24.1174 123.603 24.541 123.289 24.9042C122.974 25.2625 122.591 25.5433 122.141 25.7467C121.691 25.9452 121.18 26.0444 120.609 26.0444C120.032 26.0444 119.517 25.9452 119.062 25.7467C118.611 25.5433 118.229 25.2625 117.914 24.9042C117.599 24.541 117.36 24.1174 117.195 23.6332C117.03 23.149 116.948 22.6237 116.948 22.0572ZM118.698 21.8901V22.0572C118.698 22.4106 118.735 22.7447 118.807 23.0594C118.88 23.3741 118.994 23.6501 119.149 23.8874C119.304 24.1246 119.502 24.311 119.744 24.4466C119.986 24.5822 120.274 24.65 120.609 24.65C120.933 24.65 121.214 24.5822 121.451 24.4466C121.693 24.311 121.892 24.1246 122.047 23.8874C122.202 23.6501 122.315 23.3741 122.388 23.0594C122.465 22.7447 122.504 22.4106 122.504 22.0572V21.8901C122.504 21.5415 122.465 21.2123 122.388 20.9024C122.315 20.5877 122.199 20.3093 122.039 20.0672C121.884 19.8251 121.686 19.6362 121.444 19.5007C121.207 19.3603 120.923 19.29 120.594 19.29C120.265 19.29 119.979 19.3603 119.737 19.5007C119.5 19.6362 119.304 19.8251 119.149 20.0672C118.994 20.3093 118.88 20.5877 118.807 20.9024C118.735 21.2123 118.698 21.5415 118.698 21.8901ZM130.301 24.3231V20.5756C130.301 20.2947 130.25 20.0526 130.148 19.8493C130.046 19.6459 129.891 19.4886 129.683 19.3772C129.48 19.2658 129.223 19.2102 128.913 19.2102C128.628 19.2102 128.381 19.2586 128.173 19.3554C127.964 19.4522 127.802 19.583 127.686 19.7476C127.57 19.9122 127.512 20.0986 127.512 20.3068H125.769C125.769 19.997 125.844 19.6968 125.994 19.4062C126.144 19.1157 126.362 18.8567 126.647 18.6291C126.933 18.4016 127.274 18.2224 127.671 18.0917C128.069 17.961 128.514 17.8956 129.008 17.8956C129.599 17.8956 130.121 17.9949 130.577 18.1934C131.037 18.3919 131.397 18.6921 131.659 19.0939C131.925 19.491 132.058 19.9897 132.058 20.5901V24.0835C132.058 24.4418 132.082 24.7638 132.131 25.0494C132.184 25.3303 132.259 25.5748 132.356 25.783V25.8992H130.562C130.48 25.7103 130.414 25.4707 130.366 25.1802C130.322 24.8848 130.301 24.5991 130.301 24.3231ZM130.555 21.1203L130.569 22.2024H129.313C128.988 22.2024 128.703 22.2339 128.456 22.2968C128.209 22.3549 128.003 22.4421 127.839 22.5583C127.674 22.6745 127.55 22.8149 127.468 22.9795C127.386 23.1442 127.345 23.3306 127.345 23.5388C127.345 23.747 127.393 23.9382 127.49 24.1125C127.587 24.282 127.727 24.4151 127.911 24.512C128.1 24.6088 128.328 24.6572 128.594 24.6572C128.952 24.6572 129.264 24.5846 129.531 24.4394C129.802 24.2893 130.015 24.1077 130.17 23.8946C130.325 23.6768 130.407 23.471 130.417 23.2773L130.983 24.0544C130.925 24.2529 130.826 24.466 130.686 24.6935C130.545 24.9211 130.361 25.139 130.134 25.3472C129.911 25.5506 129.642 25.7176 129.327 25.8483C129.018 25.9791 128.659 26.0444 128.253 26.0444C127.739 26.0444 127.282 25.9427 126.88 25.7394C126.478 25.5312 126.163 25.2528 125.936 24.9042C125.708 24.5507 125.594 24.1513 125.594 23.7058C125.594 23.2894 125.672 22.9214 125.827 22.6019C125.987 22.2775 126.219 22.0063 126.524 21.7884C126.834 21.5706 127.212 21.4059 127.657 21.2946C128.102 21.1784 128.611 21.1203 129.182 21.1203H130.555ZM138.831 24.2723V14.7435H140.588V25.8992H138.998L138.831 24.2723ZM133.718 22.0572V21.9046C133.718 21.3091 133.788 20.7668 133.928 20.2778C134.069 19.7839 134.272 19.3603 134.538 19.0068C134.805 18.6485 135.129 18.3749 135.512 18.1861C135.894 17.9924 136.325 17.8956 136.804 17.8956C137.279 17.8956 137.695 17.9876 138.053 18.1716C138.412 18.3556 138.717 18.6194 138.969 18.9632C139.22 19.3021 139.421 19.7089 139.571 20.1834C139.721 20.653 139.828 21.1759 139.891 21.7521V22.2387C139.828 22.8004 139.721 23.3136 139.571 23.7784C139.421 24.2433 139.22 24.6451 138.969 24.9841C138.717 25.323 138.409 25.5844 138.046 25.7684C137.688 25.9524 137.269 26.0444 136.79 26.0444C136.315 26.0444 135.887 25.9452 135.504 25.7467C135.127 25.5481 134.805 25.2697 134.538 24.9114C134.272 24.5531 134.069 24.1319 133.928 23.6477C133.788 23.1587 133.718 22.6285 133.718 22.0572ZM135.468 21.9046V22.0572C135.468 22.4155 135.499 22.7495 135.562 23.0594C135.63 23.3693 135.734 23.6429 135.875 23.8801C136.015 24.1125 136.197 24.2965 136.419 24.4321C136.647 24.5628 136.918 24.6282 137.233 24.6282C137.63 24.6282 137.957 24.541 138.213 24.3667C138.47 24.1924 138.671 23.9576 138.816 23.6622C138.966 23.362 139.068 23.028 139.121 22.66V21.3454C139.092 21.0597 139.032 20.7934 138.94 20.5465C138.852 20.2996 138.734 20.0841 138.584 19.9001C138.434 19.7113 138.247 19.566 138.024 19.4644C137.807 19.3578 137.547 19.3046 137.247 19.3046C136.928 19.3046 136.657 19.3724 136.434 19.5079C136.211 19.6435 136.027 19.8299 135.882 20.0672C135.741 20.3044 135.637 20.5804 135.57 20.8951C135.502 21.2098 135.468 21.5463 135.468 21.9046ZM146.086 22.0572V21.8901C146.086 21.3236 146.168 20.7983 146.333 20.3141C146.497 19.8251 146.735 19.4014 147.045 19.0431C147.359 18.68 147.742 18.3991 148.192 18.2006C148.647 17.9973 149.16 17.8956 149.732 17.8956C150.308 17.8956 150.821 17.9973 151.271 18.2006C151.727 18.3991 152.111 18.68 152.426 19.0431C152.741 19.4014 152.981 19.8251 153.145 20.3141C153.31 20.7983 153.392 21.3236 153.392 21.8901V22.0572C153.392 22.6237 153.31 23.149 153.145 23.6332C152.981 24.1174 152.741 24.541 152.426 24.9042C152.111 25.2625 151.729 25.5433 151.279 25.7467C150.828 25.9452 150.318 26.0444 149.746 26.0444C149.17 26.0444 148.654 25.9452 148.199 25.7467C147.749 25.5433 147.366 25.2625 147.052 24.9042C146.737 24.541 146.497 24.1174 146.333 23.6332C146.168 23.149 146.086 22.6237 146.086 22.0572ZM147.836 21.8901V22.0572C147.836 22.4106 147.872 22.7447 147.945 23.0594C148.018 23.3741 148.131 23.6501 148.286 23.8874C148.441 24.1246 148.64 24.311 148.882 24.4466C149.124 24.5822 149.412 24.65 149.746 24.65C150.071 24.65 150.351 24.5822 150.589 24.4466C150.831 24.311 151.029 24.1246 151.184 23.8874C151.339 23.6501 151.453 23.3741 151.526 23.0594C151.603 22.7447 151.642 22.4106 151.642 22.0572V21.8901C151.642 21.5415 151.603 21.2123 151.526 20.9024C151.453 20.5877 151.337 20.3093 151.177 20.0672C151.022 19.8251 150.824 19.6362 150.581 19.5007C150.344 19.3603 150.061 19.29 149.732 19.29C149.402 19.29 149.117 19.3603 148.875 19.5007C148.637 19.6362 148.441 19.8251 148.286 20.0672C148.131 20.3093 148.018 20.5877 147.945 20.9024C147.872 21.2123 147.836 21.5415 147.836 21.8901ZM156.744 19.7185V25.8992H154.993V18.0408H156.642L156.744 19.7185ZM156.431 21.6795L155.865 21.6722C155.87 21.1154 155.947 20.6046 156.097 20.1398C156.252 19.675 156.465 19.2755 156.737 18.9414C157.013 18.6073 157.342 18.3507 157.724 18.1716C158.107 17.9876 158.533 17.8956 159.003 17.8956C159.38 17.8956 159.722 17.9489 160.027 18.0554C160.336 18.1571 160.6 18.3241 160.818 18.5565C161.041 18.7889 161.21 19.0915 161.327 19.4644C161.443 19.8323 161.501 20.285 161.501 20.8225V25.8992H159.743V20.8152C159.743 20.4376 159.688 20.1398 159.576 19.9219C159.47 19.6992 159.312 19.5418 159.104 19.4498C158.901 19.353 158.647 19.3046 158.342 19.3046C158.041 19.3046 157.773 19.3675 157.535 19.4934C157.298 19.6193 157.097 19.7912 156.933 20.0091C156.773 20.2269 156.649 20.4787 156.562 20.7644C156.475 21.0501 156.431 21.3551 156.431 21.6795ZM170.891 18.0408V19.3191H166.461V18.0408H170.891ZM167.739 16.1162H169.49V23.7276C169.49 23.9697 169.524 24.1561 169.591 24.2868C169.664 24.4127 169.763 24.4975 169.889 24.541C170.015 24.5846 170.163 24.6064 170.332 24.6064C170.453 24.6064 170.569 24.5991 170.681 24.5846C170.792 24.5701 170.882 24.5556 170.949 24.541L170.957 25.8774C170.811 25.921 170.642 25.9597 170.448 25.9936C170.26 26.0275 170.042 26.0444 169.795 26.0444C169.393 26.0444 169.037 25.9742 168.727 25.8338C168.417 25.6885 168.175 25.4537 168.001 25.1293C167.826 24.8049 167.739 24.374 167.739 23.8365V16.1162ZM174.12 14.7435V25.8992H172.376V14.7435H174.12ZM173.815 21.6795L173.248 21.6722C173.253 21.1299 173.328 20.6288 173.473 20.1688C173.623 19.7089 173.831 19.3094 174.098 18.9705C174.369 18.6267 174.693 18.3628 175.071 18.1788C175.449 17.99 175.867 17.8956 176.327 17.8956C176.715 17.8956 177.063 17.9489 177.373 18.0554C177.688 18.1619 177.959 18.3338 178.187 18.571C178.414 18.8034 178.586 19.1085 178.702 19.4861C178.823 19.859 178.884 20.3141 178.884 20.8515V25.8992H177.126V20.837C177.126 20.4594 177.071 20.1592 176.959 19.9364C176.853 19.7137 176.695 19.5539 176.487 19.4571C176.279 19.3554 176.025 19.3046 175.725 19.3046C175.41 19.3046 175.131 19.3675 174.889 19.4934C174.652 19.6193 174.454 19.7912 174.294 20.0091C174.134 20.2269 174.013 20.4787 173.931 20.7644C173.853 21.0501 173.815 21.3551 173.815 21.6795ZM184.269 26.0444C183.688 26.0444 183.163 25.95 182.693 25.7612C182.228 25.5675 181.831 25.2988 181.502 24.955C181.178 24.6112 180.928 24.2069 180.754 23.7421C180.58 23.2773 180.492 22.7762 180.492 22.2387V21.9482C180.492 21.3333 180.582 20.7765 180.761 20.2778C180.94 19.7791 181.19 19.353 181.509 18.9995C181.829 18.6412 182.206 18.3677 182.642 18.1788C183.078 17.99 183.55 17.8956 184.059 17.8956C184.62 17.8956 185.112 17.99 185.533 18.1788C185.954 18.3677 186.303 18.634 186.579 18.9777C186.86 19.3167 187.068 19.721 187.203 20.1906C187.344 20.6603 187.414 21.1784 187.414 21.7449V22.4929H181.342V21.2365H185.685V21.0985C185.676 20.7838 185.613 20.4884 185.497 20.2124C185.385 19.9364 185.213 19.7137 184.981 19.5442C184.748 19.3748 184.439 19.29 184.051 19.29C183.761 19.29 183.502 19.353 183.274 19.4789C183.051 19.5999 182.865 19.7767 182.715 20.0091C182.565 20.2415 182.449 20.5223 182.366 20.8515C182.289 21.1759 182.25 21.5415 182.25 21.9482V22.2387C182.25 22.5825 182.296 22.9021 182.388 23.1974C182.485 23.4879 182.625 23.7421 182.809 23.96C182.993 24.1779 183.216 24.3498 183.477 24.4757C183.739 24.5967 184.037 24.6572 184.371 24.6572C184.792 24.6572 185.167 24.5725 185.497 24.403C185.826 24.2336 186.111 23.9939 186.354 23.684L187.276 24.5773C187.106 24.8243 186.886 25.0615 186.615 25.2891C186.344 25.5118 186.012 25.6934 185.62 25.8338C185.233 25.9742 184.782 26.0444 184.269 26.0444Z" fill="white"/>
<path d="M84.5674 40.0734L78.4806 57.7319H74.8006L82.4685 37.3589H84.8192L84.5674 40.0734ZM89.6607 57.7319L83.5599 40.0734L83.2941 37.3589H85.6588L93.3547 57.7319H89.6607ZM89.3668 50.176V52.9605H78.2847V50.176H89.3668ZM98.7205 45.5025V63.5528H95.3483V42.592H98.4547L98.7205 45.5025ZM108.585 50.0221V50.3159C108.585 51.4167 108.455 52.4381 108.193 53.3803C107.942 54.3131 107.564 55.1293 107.06 55.829C106.566 56.5193 105.955 57.0556 105.227 57.4381C104.499 57.8206 103.66 58.0118 102.708 58.0118C101.766 58.0118 100.941 57.8392 100.232 57.4941C99.5321 57.1396 98.9397 56.6405 98.4547 55.9969C97.9696 55.3532 97.5778 54.5976 97.2793 53.7301C96.9901 52.8532 96.7849 51.8924 96.6636 50.8476V49.7142C96.7849 48.6042 96.9901 47.5967 97.2793 46.6918C97.5778 45.787 97.9696 45.0081 98.4547 44.3551C98.9397 43.7021 99.5321 43.1984 100.232 42.8439C100.931 42.4894 101.748 42.3122 102.68 42.3122C103.632 42.3122 104.476 42.4988 105.213 42.8719C105.95 43.2357 106.57 43.7581 107.074 44.4391C107.578 45.1107 107.956 45.9223 108.207 46.8738C108.459 47.8159 108.585 48.8654 108.585 50.0221ZM105.213 50.3159V50.0221C105.213 49.3224 105.148 48.6741 105.017 48.0771C104.887 47.4708 104.681 46.9391 104.401 46.482C104.122 46.0249 103.762 45.6704 103.324 45.4185C102.895 45.1573 102.377 45.0267 101.771 45.0267C101.174 45.0267 100.661 45.1294 100.232 45.3346C99.8026 45.5305 99.4435 45.8057 99.1543 46.1601C98.8651 46.5146 98.6412 46.9297 98.4826 47.4055C98.3241 47.8719 98.2121 48.3803 98.1468 48.9306V51.6452C98.2588 52.3168 98.45 52.9325 98.7205 53.4922C98.991 54.0519 99.3735 54.4997 99.8679 54.8355C100.372 55.162 101.015 55.3252 101.799 55.3252C102.405 55.3252 102.923 55.1946 103.352 54.9334C103.781 54.6722 104.131 54.3131 104.401 53.856C104.681 53.3896 104.887 52.8532 105.017 52.2469C105.148 51.6405 105.213 50.9969 105.213 50.3159ZM115.126 45.5025V63.5528H111.754V42.592H114.861L115.126 45.5025ZM124.991 50.0221V50.3159C124.991 51.4167 124.861 52.4381 124.599 53.3803C124.348 54.3131 123.97 55.1293 123.466 55.829C122.972 56.5193 122.361 57.0556 121.633 57.4381C120.905 57.8206 120.066 58.0118 119.114 58.0118C118.172 58.0118 117.347 57.8392 116.638 57.4941C115.938 57.1396 115.346 56.6405 114.861 55.9969C114.376 55.3532 113.984 54.5976 113.685 53.7301C113.396 52.8532 113.191 51.8924 113.07 50.8476V49.7142C113.191 48.6042 113.396 47.5967 113.685 46.6918C113.984 45.787 114.376 45.0081 114.861 44.3551C115.346 43.7021 115.938 43.1984 116.638 42.8439C117.337 42.4894 118.153 42.3122 119.086 42.3122C120.038 42.3122 120.882 42.4988 121.619 42.8719C122.356 43.2357 122.976 43.7581 123.48 44.4391C123.984 45.1107 124.361 45.9223 124.613 46.8738C124.865 47.8159 124.991 48.8654 124.991 50.0221ZM121.619 50.3159V50.0221C121.619 49.3224 121.554 48.6741 121.423 48.0771C121.292 47.4708 121.087 46.9391 120.807 46.482C120.528 46.0249 120.168 45.6704 119.73 45.4185C119.301 45.1573 118.783 45.0267 118.177 45.0267C117.58 45.0267 117.067 45.1294 116.638 45.3346C116.209 45.5305 115.849 45.8057 115.56 46.1601C115.271 46.5146 115.047 46.9297 114.889 47.4055C114.73 47.8719 114.618 48.3803 114.553 48.9306V51.6452C114.665 52.3168 114.856 52.9325 115.126 53.4922C115.397 54.0519 115.779 54.4997 116.274 54.8355C116.778 55.162 117.421 55.3252 118.205 55.3252C118.811 55.3252 119.329 55.1946 119.758 54.9334C120.187 54.6722 120.537 54.3131 120.807 53.856C121.087 53.3896 121.292 52.8532 121.423 52.2469C121.554 51.6405 121.619 50.9969 121.619 50.3159ZM146.623 52.4847C146.623 52.065 146.558 51.6918 146.427 51.3653C146.306 51.0389 146.087 50.7403 145.769 50.4698C145.452 50.1993 145.005 49.9381 144.426 49.6862C143.857 49.4251 143.13 49.1592 142.243 48.8887C141.273 48.5902 140.378 48.259 139.557 47.8952C138.745 47.5221 138.036 47.093 137.43 46.6079C136.824 46.1135 136.353 45.5491 136.017 44.9148C135.681 44.2711 135.513 43.5295 135.513 42.69C135.513 41.8598 135.686 41.1042 136.031 40.4232C136.385 39.7422 136.884 39.1546 137.528 38.6602C138.181 38.1564 138.95 37.7693 139.837 37.4988C140.723 37.2189 141.702 37.079 142.775 37.079C144.286 37.079 145.588 37.3589 146.679 37.9186C147.78 38.4783 148.624 39.2292 149.212 40.1713C149.809 41.1135 150.107 42.1536 150.107 43.2917H146.623C146.623 42.62 146.478 42.0277 146.189 41.5146C145.909 40.9922 145.48 40.5818 144.902 40.2833C144.333 39.9848 143.61 39.8355 142.733 39.8355C141.903 39.8355 141.213 39.9615 140.662 40.2133C140.112 40.4652 139.701 40.8057 139.431 41.2348C139.16 41.6639 139.025 42.149 139.025 42.69C139.025 43.0725 139.114 43.4223 139.291 43.7394C139.468 44.0473 139.739 44.3364 140.103 44.607C140.466 44.8682 140.923 45.1154 141.474 45.3486C142.024 45.5818 142.672 45.8057 143.419 46.0202C144.547 46.356 145.532 46.7292 146.371 47.1396C147.211 47.5407 147.91 47.9978 148.47 48.5109C149.03 49.0239 149.449 49.607 149.729 50.2599C150.009 50.9036 150.149 51.6359 150.149 52.4568C150.149 53.315 149.977 54.0892 149.631 54.7795C149.286 55.4605 148.792 56.0435 148.148 56.5286C147.514 57.0043 146.749 57.3728 145.853 57.634C144.967 57.8859 143.978 58.0118 142.887 58.0118C141.908 58.0118 140.942 57.8812 139.991 57.62C139.048 57.3588 138.19 56.9623 137.416 56.4306C136.642 55.8896 136.026 55.2179 135.569 54.4157C135.112 53.6041 134.883 52.6573 134.883 51.5752H138.395C138.395 52.2375 138.507 52.8019 138.731 53.2683C138.964 53.7347 139.286 54.1172 139.697 54.4157C140.107 54.7049 140.583 54.9194 141.124 55.0594C141.674 55.1993 142.262 55.2693 142.887 55.2693C143.708 55.2693 144.394 55.1526 144.944 54.9194C145.504 54.6862 145.923 54.3597 146.203 53.94C146.483 53.5202 146.623 53.0351 146.623 52.4847ZM160.146 42.592V45.0547H151.611V42.592H160.146ZM154.074 38.884H157.446V53.5482C157.446 54.0146 157.511 54.3737 157.642 54.6256C157.782 54.8681 157.973 55.0314 158.216 55.1153C158.458 55.1993 158.743 55.2413 159.069 55.2413C159.302 55.2413 159.526 55.2273 159.741 55.1993C159.955 55.1713 160.128 55.1433 160.258 55.1153L160.272 57.69C159.993 57.7739 159.666 57.8485 159.293 57.9138C158.929 57.9791 158.509 58.0118 158.034 58.0118C157.259 58.0118 156.574 57.8765 155.977 57.606C155.38 57.3262 154.913 56.8737 154.577 56.2487C154.242 55.6237 154.074 54.7935 154.074 53.7581V38.884ZM162.056 50.3299V50.0081C162.056 48.9167 162.215 47.9045 162.532 46.9717C162.849 46.0295 163.306 45.2133 163.903 44.523C164.51 43.8234 165.246 43.2823 166.114 42.8999C166.991 42.5081 167.98 42.3122 169.08 42.3122C170.19 42.3122 171.179 42.5081 172.047 42.8999C172.924 43.2823 173.665 43.8234 174.272 44.523C174.878 45.2133 175.34 46.0295 175.657 46.9717C175.974 47.9045 176.133 48.9167 176.133 50.0081V50.3299C176.133 51.4213 175.974 52.4334 175.657 53.3663C175.34 54.2991 174.878 55.1153 174.272 55.815C173.665 56.5053 172.928 57.0463 172.061 57.4381C171.193 57.8206 170.209 58.0118 169.108 58.0118C167.998 58.0118 167.005 57.8206 166.128 57.4381C165.26 57.0463 164.524 56.5053 163.917 55.815C163.311 55.1153 162.849 54.2991 162.532 53.3663C162.215 52.4334 162.056 51.4213 162.056 50.3299ZM165.428 50.0081V50.3299C165.428 51.0109 165.498 51.6545 165.638 52.2609C165.778 52.8672 165.997 53.3989 166.296 53.856C166.594 54.3131 166.977 54.6722 167.443 54.9334C167.91 55.1946 168.465 55.3252 169.108 55.3252C169.733 55.3252 170.274 55.1946 170.732 54.9334C171.198 54.6722 171.58 54.3131 171.879 53.856C172.177 53.3989 172.397 52.8672 172.537 52.2609C172.686 51.6545 172.76 51.0109 172.76 50.3299V50.0081C172.76 49.3364 172.686 48.7021 172.537 48.1051C172.397 47.4988 172.173 46.9624 171.865 46.496C171.566 46.0295 171.184 45.6657 170.718 45.4045C170.26 45.134 169.715 44.9988 169.08 44.9988C168.446 44.9988 167.896 45.134 167.429 45.4045C166.972 45.6657 166.594 46.0295 166.296 46.496C165.997 46.9624 165.778 47.4988 165.638 48.1051C165.498 48.7021 165.428 49.3364 165.428 50.0081ZM182.632 45.4745V57.7319H179.26V42.592H182.478L182.632 45.4745ZM187.263 42.4941L187.235 45.6284C187.03 45.5911 186.806 45.5631 186.564 45.5445C186.331 45.5258 186.097 45.5165 185.864 45.5165C185.286 45.5165 184.777 45.6004 184.339 45.7683C183.901 45.9269 183.532 46.1601 183.234 46.468C182.944 46.7665 182.72 47.1303 182.562 47.5594C182.403 47.9885 182.31 48.4689 182.282 49.0006L181.512 49.0566C181.512 48.1051 181.606 47.2236 181.792 46.412C181.979 45.6004 182.259 44.8868 182.632 44.2711C183.014 43.6555 183.49 43.1751 184.059 42.8299C184.637 42.4848 185.304 42.3122 186.06 42.3122C186.265 42.3122 186.484 42.3309 186.718 42.3682C186.96 42.4055 187.142 42.4475 187.263 42.4941ZM196.057 58.0118C194.938 58.0118 193.926 57.8299 193.021 57.4661C192.126 57.0929 191.361 56.5752 190.726 55.9129C190.101 55.2506 189.621 54.4717 189.285 53.5762C188.949 52.6806 188.781 51.7152 188.781 50.6797V50.12C188.781 48.9353 188.954 47.8626 189.299 46.9017C189.644 45.9409 190.125 45.12 190.74 44.4391C191.356 43.7488 192.084 43.2217 192.923 42.8579C193.763 42.4941 194.672 42.3122 195.652 42.3122C196.734 42.3122 197.681 42.4941 198.492 42.8579C199.304 43.2217 199.975 43.7348 200.507 44.3971C201.048 45.0501 201.449 45.829 201.71 46.7338C201.981 47.6387 202.116 48.6368 202.116 49.7282V51.1694H190.418V48.7487H198.786V48.4829C198.767 47.8765 198.646 47.3075 198.422 46.7758C198.208 46.2441 197.876 45.815 197.429 45.4885C196.981 45.162 196.384 44.9988 195.638 44.9988C195.078 44.9988 194.579 45.12 194.14 45.3626C193.711 45.5958 193.352 45.9363 193.063 46.384C192.774 46.8318 192.55 47.3728 192.391 48.0071C192.242 48.6321 192.167 49.3364 192.167 50.12V50.6797C192.167 51.342 192.256 51.9577 192.433 52.5267C192.62 53.0864 192.89 53.5762 193.245 53.9959C193.599 54.4157 194.028 54.7469 194.532 54.9894C195.036 55.2226 195.61 55.3392 196.253 55.3392C197.065 55.3392 197.788 55.176 198.422 54.8495C199.056 54.523 199.607 54.0612 200.073 53.4642L201.85 55.1853C201.524 55.661 201.099 56.1181 200.577 56.5566C200.055 56.9857 199.416 57.3355 198.66 57.606C197.914 57.8765 197.046 58.0118 196.057 58.0118Z" fill="white"/>
<path d="M46.9 39.3473C46.8803 35.7155 48.5172 32.9743 51.8305 30.9556C49.9766 28.2936 47.1761 26.829 43.4783 26.5421C39.9776 26.265 36.1516 28.5905 34.7514 28.5905C33.2722 28.5905 29.8801 26.641 27.2176 26.641C21.7152 26.7301 15.8677 31.0447 15.8677 39.8223C15.8677 42.415 16.341 45.0934 17.2876 47.8577C18.5498 51.4895 23.1056 60.3957 27.8586 60.2473C30.3435 60.1879 32.0988 58.4759 35.3331 58.4759C38.4689 58.4759 40.096 60.2473 42.8669 60.2473C47.6593 60.178 51.7812 52.0832 52.9842 48.4415C46.5549 45.4035 46.9 39.5353 46.9 39.3473ZM41.3187 23.0983C44.0108 19.8921 43.7642 16.9728 43.6854 15.9238C41.3089 16.0624 38.5577 17.5467 36.9898 19.3775C35.2641 21.3368 34.2484 23.7613 34.4654 26.4926C37.0391 26.6905 39.386 25.3645 41.3187 23.0983Z" fill="white"/>
</svg>
