<svg width="20" height="33" viewBox="0 0 20 33" fill="none" xmlns="http://www.w3.org/2000/svg">
<path d="M20 0.919841C20 0.678736 19.9042 0.447505 19.7337 0.277017C19.5632 0.10653 19.332 0.0107506 19.0909 0.0107506H14.5455C12.2566 -0.103266 10.0156 0.69328 8.31222 2.22635C6.60881 3.75942 5.58143 5.90438 5.45455 8.19257V13.1017H0.909091C0.667985 13.1017 0.436754 13.1974 0.266267 13.3679C0.0957791 13.5384 0 13.7696 0 14.0107V18.738C0 18.9791 0.0957791 19.2104 0.266267 19.3808C0.436754 19.5513 0.667985 19.6471 0.909091 19.6471H5.45455V31.8289C5.45455 32.07 5.55032 32.3013 5.72081 32.4718C5.8913 32.6422 6.12253 32.738 6.36364 32.738H11.8182C12.0593 32.738 12.2905 32.6422 12.461 32.4718C12.6315 32.3013 12.7273 32.07 12.7273 31.8289V19.6471H17.4909C17.6931 19.65 17.8904 19.5854 18.0518 19.4636C18.2131 19.3418 18.3293 19.1696 18.3818 18.9744L19.6909 14.2471C19.7271 14.1128 19.7319 13.972 19.7051 13.8355C19.6783 13.699 19.6205 13.5704 19.5362 13.4598C19.4519 13.3491 19.3433 13.2593 19.2188 13.1972C19.0944 13.1351 18.9573 13.1024 18.8182 13.1017H12.7273V8.19257C12.7725 7.74253 12.9838 7.3255 13.32 7.02292C13.6562 6.72034 14.0932 6.55394 14.5455 6.5562H19.0909C19.332 6.5562 19.5632 6.46043 19.7337 6.28994C19.9042 6.11945 20 5.88822 20 5.64711V0.919841Z" fill="white"/>
</svg>
