<svg width="28" height="28" viewBox="0 0 28 28" fill="none" xmlns="http://www.w3.org/2000/svg">
<path fill-rule="evenodd" clip-rule="evenodd" d="M8.22811 0.084C9.72145 0.0155527 10.1974 0 14 0C17.8033 0 18.2785 0.0163291 19.7711 0.084C21.2621 0.151671 22.2802 0.388895 23.1708 0.735C24.1048 1.08667 24.9509 1.63767 25.6503 2.34967C26.3624 3.04895 26.9135 3.89513 27.265 4.82922C27.6111 5.71978 27.8475 6.73789 27.916 8.22811C27.9845 9.72145 28 10.1974 28 14C28 17.8025 27.9837 18.2785 27.916 19.7719C27.8483 21.2621 27.6111 22.2802 27.265 23.1708C26.9072 24.0909 26.4281 24.8725 25.6503 25.6503C24.9511 26.3624 24.1048 26.9135 23.1708 27.265C22.2802 27.6111 21.2621 27.8475 19.7719 27.916C18.2785 27.9845 17.8025 28 14 28C10.1974 28 9.72145 27.9837 8.22811 27.916C6.73789 27.8483 5.71978 27.6111 4.82922 27.265C3.90911 26.9072 3.12745 26.4281 2.34967 25.6503C1.63754 24.9511 1.0865 24.1048 0.735 23.1708C0.388895 22.2802 0.152447 21.2621 0.084 19.7719C0.0155527 18.2785 0 17.8033 0 14C0 10.1967 0.0163291 9.72145 0.084 8.22889C0.151671 6.73789 0.388895 5.71978 0.735 4.82922C1.08667 3.89519 1.63767 3.04905 2.34967 2.34967C3.04893 1.63754 3.89512 1.0865 4.82922 0.735C5.71978 0.388895 6.73789 0.152447 8.22811 0.084ZM19.6575 2.604C18.1813 2.53711 17.738 2.52233 14 2.52233C10.262 2.52233 9.81867 2.53711 8.34245 2.604C6.97745 2.66622 6.23622 2.89411 5.74311 3.08622C5.08978 3.33978 4.62311 3.64311 4.13311 4.13311C3.64389 4.62311 3.33978 5.08978 3.08622 5.74311C2.89411 6.23622 2.66622 6.97745 2.604 8.34245C2.53711 9.81867 2.52233 10.262 2.52233 14C2.52233 17.738 2.53711 18.1813 2.604 19.6575C2.66622 21.0225 2.89411 21.7638 3.08622 22.2569C3.3105 22.8651 3.66824 23.4151 4.13311 23.8669C4.5848 24.3317 5.13496 24.6895 5.74311 24.9138C6.23622 25.1059 6.97745 25.3338 8.34245 25.396C9.81867 25.4629 10.2612 25.4777 14 25.4777C17.7388 25.4777 18.1813 25.4629 19.6575 25.396C21.0225 25.3338 21.7638 25.1059 22.2569 24.9138C22.9102 24.6602 23.3769 24.3569 23.8669 23.8669C24.3317 23.4153 24.6895 22.8651 24.9138 22.2569C25.1059 21.7638 25.3338 21.0225 25.396 19.6575C25.4629 18.1813 25.4777 17.738 25.4777 14C25.4777 10.262 25.4629 9.81867 25.396 8.34245C25.3338 6.97745 25.1059 6.23622 24.9138 5.74311C24.6602 5.08978 24.3569 4.62311 23.8669 4.13311C23.3769 3.64389 22.9102 3.33978 22.2569 3.08622C21.7638 2.89411 21.0225 2.66622 19.6575 2.604ZM12.2125 18.3157C12.7792 18.5505 13.3865 18.6713 14 18.6713C15.239 18.6713 16.4271 18.1791 17.3031 17.3031C18.1793 16.4271 18.6714 15.2389 18.6714 14C18.6714 12.7611 18.1793 11.5729 17.3031 10.6969C16.4271 9.82082 15.239 9.32866 14 9.32866C13.3865 9.32866 12.7792 9.44949 12.2125 9.68425C11.6456 9.919 11.1307 10.2631 10.6969 10.6969C10.2631 11.1306 9.91904 11.6456 9.68428 12.2123C9.44953 12.7791 9.32871 13.3865 9.32871 14C9.32871 14.6135 9.44953 15.2209 9.68428 15.7877C9.91904 16.3544 10.2631 16.8694 10.6969 17.3031C11.1307 17.7369 11.6456 18.081 12.2125 18.3157ZM8.9117 8.91165C10.2612 7.56214 12.0915 6.80399 14 6.80399C15.9086 6.80399 17.7389 7.56214 19.0884 8.91165C20.4378 10.2612 21.196 12.0915 21.196 14C21.196 15.9085 20.4378 17.7388 19.0884 19.0884C17.7389 20.4378 15.9086 21.196 14 21.196C12.0915 21.196 10.2612 20.4378 8.9117 19.0884C7.56219 17.7388 6.80404 15.9085 6.80404 14C6.80404 12.0915 7.56219 10.2612 8.9117 8.91165ZM22.7916 7.87612C23.1106 7.55711 23.2898 7.12446 23.2898 6.67333C23.2898 6.22219 23.1106 5.78953 22.7916 5.47054C22.4725 5.15154 22.0399 4.97233 21.5888 4.97233C21.1377 4.97233 20.705 5.15154 20.386 5.47054C20.067 5.78953 19.8878 6.22219 19.8878 6.67333C19.8878 7.12446 20.067 7.55711 20.386 7.87612C20.705 8.19512 21.1377 8.37433 21.5888 8.37433C22.0399 8.37433 22.4725 8.19512 22.7916 7.87612Z" fill="white"/>
</svg>
