<svg width="29" height="24" viewBox="0 0 29 24" fill="none" xmlns="http://www.w3.org/2000/svg">
<path d="M29 2.79067C27.9335 3.26324 26.7879 3.58253 25.5835 3.72686C26.8122 2.99119 27.7547 1.82384 28.1992 0.434247C27.0497 1.11627 25.7764 1.61182 24.4213 1.87748C23.3356 0.722893 21.7902 0 20.0788 0C16.7938 0 14.1296 2.66423 14.1296 5.95173C14.1296 6.41663 14.1832 6.86876 14.2829 7.30556C9.3363 7.05651 4.95424 4.68731 2.01924 1.08817C1.50837 1.96944 1.21461 2.99119 1.21461 4.07936C1.21461 6.14331 2.26574 7.96587 3.86096 9.03233C2.88518 9.0004 1.96816 8.73347 1.16608 8.28772V8.36436C1.16608 11.247 3.21598 13.6519 5.93896 14.1986C5.4383 14.334 4.91337 14.4055 4.37184 14.4055C3.98868 14.4055 3.61446 14.3697 3.25174 14.3008C4.00912 16.6636 6.20589 18.3852 8.8101 18.4312C6.77297 20.0277 4.20708 20.9792 1.42024 20.9792C0.940014 20.9792 0.466174 20.9511 0 20.8962C2.63358 22.5859 5.76015 23.5694 9.11918 23.5694C20.0647 23.5694 26.0484 14.5038 26.0484 6.64142C26.0484 6.38598 26.042 6.12799 26.0305 5.87255C27.1928 5.03215 28.2018 3.98613 28.9974 2.7945L29 2.79067Z" fill="white"/>
</svg>
